<svg height="320" version="1.1" width="320" xmlns="http://www.w3.org/2000/svg" xmlns:xlink="http://www.w3.org/1999/xlink" style="overflow: hidden; position: relative; left: -0.5px; top: -0.796875px;" viewBox="0 0 320 320" preserveAspectRatio="xMidYMid meet" id="main_svg"><svg height="320" version="1.1" width="320" xmlns="http://www.w3.org/2000/svg" xmlns:xlink="http://www.w3.org/1999/xlink" style="overflow: hidden; position: relative;" viewBox="0 0 160 160" preserveAspectRatio="xMidYMid meet" id="imported_svg_layer_1"><rect x="0" y="0" width="160" height="160" rx="0" ry="0" fill="#ffffff" stroke="none" stroke-width="0" opacity="1" fill-opacity="1" transform="matrix(1,0,0,1,0,0)" style="-webkit-tap-highlight-color: rgba(0, 0, 0, 0); opacity: 1; fill-opacity: 1;"></rect><desc style="-webkit-tap-highlight-color: rgba(0, 0, 0, 0);">Created with Logotizer</desc><defs style="-webkit-tap-highlight-color: rgba(0, 0, 0, 0);"><linearGradient id="gradient_8rtzdy682onock5x62yil9" x1="1.8369701987210297e-16" y1="0" x2="0" y2="1" style="-webkit-tap-highlight-color: rgba(0, 0, 0, 0);"><stop offset="0%" stop-color="#8dd4ff" stop-opacity="1" style="-webkit-tap-highlight-color: rgba(0, 0, 0, 0);"></stop><stop offset="100%" stop-color="#ffeeb2" stop-opacity="1" style="-webkit-tap-highlight-color: rgba(0, 0, 0, 0);"></stop></linearGradient></defs></svg><svg height="320" version="1.1" width="320" xmlns="http://www.w3.org/2000/svg" xmlns:xlink="http://www.w3.org/1999/xlink" style="overflow: hidden; position: relative;" viewBox="0 0 160 160" preserveAspectRatio="xMidYMid meet" id="imported_svg_layer_2"><desc style="-webkit-tap-highlight-color: rgba(0, 0, 0, 0);">Created with Logotizer</desc><defs style="-webkit-tap-highlight-color: rgba(0, 0, 0, 0);"></defs><path fill="#ffffff" stroke="#d5d5d5" d="M160,90L80,20L0,90H40V160H120V90H160" stroke-width="2" transform="matrix(1,0,0,1,0,0)" style="-webkit-tap-highlight-color: rgba(0, 0, 0, 0); display: none; cursor: move;"></path></svg><desc style="-webkit-tap-highlight-color: rgba(0, 0, 0, 0);">Created with Logotizer</desc><defs style="-webkit-tap-highlight-color: rgba(0, 0, 0, 0);"></defs><path fill="#14102b" stroke="none" d="M-7.81,-10.56Q-7.81,-4.8,-13.21,-1.32Q-18.61,2.16,-27.49,2.16Q-40.21,2.16,-48.13,-7.92Q-51.25,-12,-56.89,-20.64Q-62.53,-29.28,-69.61,-40.32Q-76.69,-51.36,-79.33,-55.2Q-95.17,-78.96,-100.69,-82.32L-104.05,-81.12L-104.05,-22.8Q-104.05,-13.92,-99.73,-13.92Q-95.89,-13.92,-94.57,-12.36Q-93.25,-10.8,-93.25,-7.92Q-93.25,-4.08,-97.09,-2.04Q-100.93,0,-105.73,0L-134.53,0Q-139.33,0,-143.17,-2.04Q-147.01,-4.08,-147.01,-7.92Q-147.01,-13.92,-140.53,-13.92Q-138.85,-13.92,-137.41,-16.44Q-135.97,-18.96,-135.97,-22.8L-135.97,-146.64Q-135.97,-155.76,-140.53,-155.76Q-147.01,-155.76,-147.01,-161.76Q-147.01,-165.84,-143.17,-167.88Q-139.33,-169.92,-134.53,-169.92L-105.73,-169.92Q-101.17,-169.92,-97.21,-167.76Q-93.25,-165.6,-93.25,-161.76Q-93.25,-155.76,-99.73,-155.76Q-104.05,-155.76,-104.05,-146.64L-104.05,-93.12Q-97.81,-96.96,-90.85,-102Q-83.89,-107.04,-74.05,-115.2Q-64.21,-123.36,-57.97,-132.6Q-51.73,-141.84,-51.73,-149.76Q-51.73,-154.56,-54.61,-156.72Q-57.49,-158.88,-57.49,-161.76Q-57.49,-165.84,-53.65,-167.88Q-49.81,-169.92,-44.77,-169.92L-27.49,-169.92Q-15.25,-169.92,-15.25,-161.76Q-15.25,-158.88,-16.81,-156.36Q-18.37,-153.84,-23.05,-148.68Q-27.73,-143.52,-30.13,-140.4Q-47.65,-118.32,-73.33,-98.16Q-69.73,-94.08,-52.21,-69.12Q-31.57,-38.88,-22.45,-27.6Q-19.57,-24,-15.61,-20.76Q-11.65,-17.52,-9.73,-15.36Q-7.81,-13.2,-7.81,-10.56ZM157.07,-9.84Q157.07,7.44,153.95,20.52Q150.83,33.6,144.35,33.6Q140.99,33.6,138.95,28.8Q136.91,24,135.35,16.68Q133.79,9.36,132.35,6.72Q129.71,1.92,126.47,0.96Q123.23,0,113.39,0L44.51,0Q39.23,0,36.47,0.24Q33.71,0.48,30.35,2.04Q26.99,3.6,25.79,6.72Q24.59,10.08,21.95,18.48Q19.31,26.88,17.27,30.24Q15.23,33.6,11.87,33.6Q8.75,33.6,6.71,30.12Q4.67,26.64,3.95,19.68Q3.23,12.72,2.99,7.44Q2.75,2.16,2.75,-6Q2.75,-16.32,11.87,-16.32Q18.59,-16.32,22.43,-20.4Q31.07,-30.24,37.55,-48Q44.03,-65.76,47.87,-102.48Q49.55,-117.36,49.55,-132.24Q49.55,-155.28,38.27,-155.28Q32.27,-155.28,32.27,-161.28Q32.27,-165.6,35.99,-167.76Q39.71,-169.92,44.99,-169.92L138.11,-169.92Q143.15,-169.92,146.99,-168Q150.83,-166.08,150.83,-161.76Q150.83,-155.76,144.35,-155.76Q142.67,-155.76,141.23,-153.24Q139.79,-150.72,139.79,-146.88L139.79,-24.48Q139.79,-20.64,141.23,-18.72Q142.67,-16.8,143.87,-16.56Q145.07,-16.32,146.99,-16.32Q154.19,-16.32,155.63,-14.64Q157.07,-13.2,157.07,-9.84M107.87,-22.8L107.87,-146.64Q107.87,-150.72,106.79,-152.28Q105.71,-153.84,102.11,-153.84L72.59,-153.84Q68.75,-153.84,67.67,-152.28Q66.59,-150.72,66.59,-146.64Q66.59,-112.08,61.79,-80.16Q58.43,-56.4,52.43,-39.36Q46.43,-22.32,40.67,-16.08L102.11,-16.08Q105.71,-16.08,106.79,-17.52Q107.87,-18.96,107.87,-22.8Z" transform="matrix(0.92,0,0,0.92,160,234.96)" style="-webkit-tap-highlight-color: rgba(0, 0, 0, 0);"></path></svg>